<?xml version="1.0" ?><svg xmlns="http://www.w3.org/2000/svg" id="Layer_4" data-name="Layer 4" viewBox="0 0 64 64"><defs><style>
      .cls-1 {
        fill: none;
        stroke: #000;
        stroke-linecap: round;
        stroke-linejoin: round;
        stroke-width: 3px;
      }
    </style></defs><path d="m49.69,25.49c-.59,3.47-3.32,5.99-8.02,10.08-.03.03-.06.05-.09.08l3.71.94c4.39-3.86,7.69-7.28,7.69-12.61v-.08l-3.28,1.59Zm-30.44-10.08c5.73,0,8.2,6.02,8.3,6.26.47,1.21,1.63,2,2.93,2.01h.01c1.29,0,2.46-.79,2.93-1.99.11-.26,2.58-6.28,8.31-6.28,4.05,0,7.13,2.68,7.89,6.61l2.91-1.41c-1.29-4.82-5.35-8.36-10.8-8.36-8.04,0-11.24,8.28-11.24,8.28,0,0-3.2-8.28-11.24-8.28-6.66,0-11.24,5.3-11.24,11.74,0,10.27,12.24,13.43,20.9,26.41.38.56.99.84,1.59.84s1.21-.28,1.59-.84c.98-1.47,2.01-2.82,3.06-4.06l-1.35-3.26c-1.13,1.24-2.23,2.59-3.3,4.07-3.62-5-7.61-8.48-11.18-11.57-5.35-4.66-8.15-7.29-8.15-11.59,0-4.97,3.4-8.58,8.09-8.58Z"/><path class="cls-1" d="m30.85,35.93l6.36,15.45c.59,1.43,2.47,1.86,3.4.78l9.77-11.35c.93-1.07.23-2.86-1.26-3.24l-16.14-4.1c-1.53-.39-2.73.99-2.13,2.45Z"/><line class="cls-1" x1="46.86" y1="22.38" x2="54.67" y2="18.6"/><line class="cls-1" x1="23.81" y1="33.59" x2="25.92" y2="33.23"/><line class="cls-1" x1="27.43" y1="27.21" x2="29.64" y2="29.47"/><line class="cls-1" x1="35.6" y1="26.09" x2="34.47" y2="28.32"/></svg>