<?xml version="1.0" standalone="no"?>
<!DOCTYPE svg PUBLIC "-//W3C//DTD SVG 20010904//EN"
 "http://www.w3.org/TR/2001/REC-SVG-20010904/DTD/svg10.dtd">
<svg version="1.0" xmlns="http://www.w3.org/2000/svg"
 width="1280.000000pt" height="640.000000pt" viewBox="0 0 1280.000000 640.000000"
 preserveAspectRatio="xMidYMid meet">
<metadata>
Created by potrace 1.15, written by Peter Selinger 2001-2017
</metadata>
<g transform="translate(0.000000,640.000000) scale(0.100000,-0.100000)"
fill="#000000" stroke="none">
<path d="M4820 4986 c-427 -95 -721 -446 -721 -861 0 -322 133 -575 491 -933
62 -63 219 -211 349 -330 457 -420 592 -575 698 -799 l45 -95 37 6 c20 3 43 6
52 6 10 0 23 18 34 48 35 93 138 285 195 360 63 85 172 194 237 236 l42 28
-45 59 c-25 33 -49 59 -53 59 -10 0 -173 -168 -233 -240 -55 -66 -118 -164
-182 -283 -26 -49 -49 -87 -51 -85 -2 2 -32 46 -68 99 -141 212 -324 417 -684
767 -380 369 -465 469 -549 646 -222 470 -103 978 275 1175 97 50 196 78 333
92 91 10 118 9 178 -5 142 -32 309 -143 360 -239 23 -44 25 -45 83 -51 119
-12 130 -10 152 30 53 99 235 219 380 249 217 45 390 -9 555 -175 93 -93 156
-192 195 -308 24 -71 51 -251 42 -275 -4 -11 10 -16 66 -20 40 -3 76 -2 81 1
5 2 6 61 3 131 -7 146 -34 249 -92 346 -92 153 -274 280 -483 337 -118 32
-333 30 -463 -5 -143 -37 -261 -101 -361 -195 l-48 -44 -51 46 c-114 102 -286
188 -441 220 -91 19 -277 20 -358 2z"/>
<path d="M7995 4730 c-239 -32 -501 -244 -639 -517 -41 -82 -43 -93 -18 -93 9
0 36 -9 59 -19 l41 -19 13 30 c29 70 117 188 204 274 78 78 106 99 186 137
148 71 265 89 405 64 158 -29 278 -93 399 -212 123 -121 190 -231 241 -401 26
-83 28 -102 28 -274 1 -170 -1 -193 -26 -285 -38 -143 -83 -249 -217 -510
-108 -210 -189 -351 -478 -825 -115 -189 -201 -346 -269 -493 -26 -56 -49
-104 -51 -107 -6 -7 -25 19 -163 216 -197 281 -286 356 -655 553 -263 141
-375 215 -493 326 -355 334 -432 898 -160 1169 135 134 307 202 538 213 75 3
155 1 200 -6 153 -23 299 -88 383 -169 20 -20 37 -30 37 -23 0 7 16 46 35 87
l34 75 -60 39 c-73 47 -185 91 -294 116 -99 23 -354 26 -460 6 -327 -63 -513
-187 -626 -417 -64 -132 -82 -210 -82 -360 0 -139 19 -240 67 -361 61 -155
112 -230 241 -359 141 -142 204 -187 510 -372 280 -169 359 -222 472 -316 146
-121 197 -186 308 -389 l59 -107 122 -3 123 -3 32 85 c39 105 152 326 245 480
38 63 185 290 327 504 278 419 361 569 435 787 187 543 103 1032 -220 1284
-203 159 -527 235 -833 195z"/>
<path d="M9150 4023 c0 -5 4 -13 9 -18 5 -6 11 -26 13 -45 3 -35 3 -35 46 -32
23 2 58 -2 77 -8 59 -19 126 -109 155 -207 l13 -42 37 57 c49 77 137 154 218
194 63 31 74 33 172 33 98 0 109 -2 170 -32 108 -53 181 -137 221 -255 40
-118 9 -289 -80 -443 -46 -81 -126 -182 -330 -419 -205 -237 -299 -353 -351
-435 -25 -38 -47 -70 -50 -70 -3 -1 -35 50 -72 113 -116 197 -211 292 -363
366 -119 57 -119 57 -145 15 -12 -20 -21 -37 -19 -39 2 -1 34 -17 71 -35 180
-86 358 -267 433 -438 16 -39 21 -43 54 -42 89 1 106 10 155 83 94 136 203
265 377 441 366 372 421 453 466 680 32 166 -14 336 -114 425 -56 49 -185 114
-268 135 -75 19 -212 19 -293 0 -69 -17 -183 -71 -229 -109 l-30 -25 -64 62
c-42 41 -78 67 -104 74 -55 16 -175 27 -175 16z"/>
<path d="M3788 4001 c-139 -45 -248 -147 -347 -327 l-23 -42 -52 14 c-125 33
-292 7 -381 -61 -131 -101 -203 -236 -226 -427 -13 -115 4 -233 47 -324 37
-77 157 -199 244 -247 85 -47 123 -60 311 -107 361 -91 492 -152 643 -302 l69
-69 26 24 c14 14 38 32 52 41 24 15 27 25 33 99 17 201 82 358 257 625 39 59
84 133 100 165 l29 57 -47 58 -48 58 -17 -68 c-19 -76 -64 -170 -134 -280
-144 -224 -234 -457 -234 -604 0 -19 -3 -34 -6 -34 -4 0 -33 25 -66 55 -98 91
-202 134 -526 215 -283 71 -411 128 -511 230 -124 125 -168 304 -127 502 38
175 132 283 298 339 78 26 137 22 211 -16 53 -26 56 -27 89 -11 28 14 43 33
77 101 79 159 199 255 321 255 71 0 141 -21 203 -60 26 -16 49 -30 51 -30 1 0
-6 30 -15 68 -10 37 -18 77 -18 88 -1 30 -18 34 -129 33 -65 0 -116 -6 -154
-18z"/>
<path d="M1400 3979 c-84 -10 -135 -35 -189 -94 -46 -52 -101 -167 -101 -215
0 -32 -18 -33 -98 -5 -52 18 -106 28 -167 32 -80 4 -95 2 -135 -19 -26 -13
-58 -41 -75 -66 -28 -41 -30 -50 -30 -135 0 -86 2 -96 34 -155 20 -37 60 -87
99 -123 57 -54 96 -76 308 -180 134 -65 266 -133 294 -150 45 -27 54 -30 78
-20 24 10 32 24 50 84 11 40 33 90 47 111 26 39 26 39 10 84 -13 32 -20 41
-27 31 -24 -37 -67 -130 -84 -181 -10 -32 -21 -58 -24 -58 -16 0 -420 196
-469 227 -131 84 -201 193 -209 323 -4 67 -1 83 18 118 13 22 37 48 55 58 61
33 183 1 256 -67 l32 -29 50 28 c45 26 51 33 63 80 19 71 48 126 97 179 96
105 194 111 276 17 l33 -36 34 33 34 33 -28 29 c-53 56 -130 78 -232 66z"/>
<path d="M1820 3919 c-209 -68 -345 -272 -326 -487 16 -168 53 -290 166 -537
43 -93 95 -214 115 -268 64 -172 113 -237 178 -237 58 0 103 26 151 89 58 75
110 121 209 186 116 75 233 132 390 189 26 10 47 21 47 26 0 4 -7 24 -15 43
l-15 36 -92 -44 c-192 -89 -442 -244 -587 -363 -35 -29 -67 -49 -71 -45 -13
14 -248 516 -285 608 -139 345 -124 537 53 682 66 53 140 77 231 71 86 -5 150
-36 223 -109 75 -75 90 -78 145 -29 61 53 126 74 219 68 131 -9 238 -79 298
-196 l22 -43 28 30 29 30 -27 45 c-38 65 -115 137 -183 172 -51 26 -68 29
-148 29 -106 0 -167 -23 -252 -92 l-52 -42 -31 50 c-66 101 -149 147 -280 155
-58 3 -90 -1 -140 -17z"/>
<path d="M11178 3849 c-21 -6 -57 -28 -80 -49 l-42 -37 29 -36 c17 -20 32 -36
35 -36 3 -1 14 13 25 30 44 67 134 91 204 55 77 -40 164 -161 178 -250 5 -32
14 -43 57 -71 l51 -33 35 31 c83 73 211 102 267 61 48 -36 67 -80 66 -153 -2
-107 -32 -172 -122 -263 -71 -71 -89 -82 -241 -156 -212 -103 -303 -146 -313
-146 -5 -1 -23 37 -41 84 -17 47 -43 104 -57 127 l-25 42 -17 -45 -16 -45 29
-45 c16 -26 37 -77 47 -115 12 -49 22 -69 33 -69 9 0 21 -5 27 -11 8 -8 22 -3
53 16 45 28 286 150 376 190 103 46 216 119 266 174 73 80 100 140 106 233 11
181 -85 261 -283 237 -41 -5 -104 -21 -141 -35 -36 -13 -68 -23 -69 -22 -1 2
-10 30 -20 63 -52 184 -147 270 -307 280 -40 2 -90 -1 -110 -6z"/>
<path d="M10877 3690 c-80 -14 -151 -55 -212 -123 l-56 -61 -25 32 c-24 30
-90 72 -112 72 -5 0 -9 -20 -8 -45 1 -41 4 -45 39 -61 21 -10 43 -26 48 -36 7
-14 21 -18 57 -18 44 1 48 3 72 42 53 86 166 144 266 136 75 -6 130 -46 169
-123 28 -55 30 -66 30 -164 -1 -89 -5 -119 -28 -186 -36 -105 -100 -213 -208
-357 -49 -64 -113 -155 -144 -203 l-56 -86 -44 54 c-99 122 -286 266 -420 322
-63 27 -66 27 -85 10 -20 -18 -19 -19 51 -57 39 -21 99 -60 133 -85 88 -68
228 -212 278 -288 27 -41 51 -68 65 -70 73 -15 64 -22 123 93 53 105 121 211
233 366 155 213 225 422 199 591 -14 89 -38 141 -85 182 -60 52 -183 80 -280
63z"/>
<path d="M12208 3590 c-21 -5 -56 -21 -78 -35 -36 -22 -39 -27 -28 -45 10 -16
15 -17 28 -6 34 30 104 58 147 58 132 0 224 -157 163 -277 -25 -48 -25 -46 4
-67 22 -16 28 -16 66 -3 72 25 117 20 155 -18 63 -63 68 -156 15 -240 -37 -58
-98 -94 -212 -123 -100 -27 -223 -73 -284 -109 l-41 -24 -6 107 c-7 133 -29
332 -37 331 -3 0 -20 -18 -38 -39 l-32 -38 16 -58 c8 -33 18 -116 21 -187 l6
-128 42 -28 42 -28 24 20 c44 36 182 96 284 122 55 15 126 38 158 52 146 65
216 243 143 367 -43 74 -139 110 -234 88 -38 -9 -43 -8 -37 6 39 102 -11 234
-108 281 -52 25 -127 34 -179 21z"/>
<path d="M445 3471 c-36 -9 -103 -40 -110 -52 -3 -4 -21 -1 -40 7 -73 30 -188
7 -248 -51 -46 -45 -55 -106 -32 -220 22 -104 47 -148 156 -275 50 -58 102
-126 117 -152 29 -51 60 -66 103 -49 31 12 54 38 119 136 74 111 161 223 208
269 l40 39 -29 25 c-28 23 -32 24 -56 11 -38 -20 -82 -78 -176 -234 -47 -77
-92 -148 -99 -159 -22 -29 -51 -12 -90 52 -19 31 -58 94 -85 139 -57 93 -93
207 -93 295 0 51 3 58 35 87 29 25 44 31 83 31 27 0 53 -5 59 -11 20 -20 101
-1 135 32 17 16 36 29 43 29 22 0 75 -22 75 -31 0 -5 5 -9 10 -9 16 0 12 53
-6 78 -16 23 -57 28 -119 13z"/>
</g>
</svg>
